<?xml version="1.0" encoding="utf-8"?>
<!-- Generator: Adobe Illustrator 25.0.0, SVG Export Plug-In . SVG Version: 6.00 Build 0)  -->
<!DOCTYPE svg PUBLIC "-//W3C//DTD SVG 1.1//EN" "http://www.w3.org/Graphics/SVG/1.1/DTD/svg11.dtd" [
	<!ENTITY ns_extend "http://ns.adobe.com/Extensibility/1.0/">
	<!ENTITY ns_ai "http://ns.adobe.com/AdobeIllustrator/10.0/">
	<!ENTITY ns_graphs "http://ns.adobe.com/Graphs/1.0/">
	<!ENTITY ns_vars "http://ns.adobe.com/Variables/1.0/">
	<!ENTITY ns_imrep "http://ns.adobe.com/ImageReplacement/1.0/">
	<!ENTITY ns_sfw "http://ns.adobe.com/SaveForWeb/1.0/">
	<!ENTITY ns_custom "http://ns.adobe.com/GenericCustomNamespace/1.0/">
	<!ENTITY ns_adobe_xpath "http://ns.adobe.com/XPath/1.0/">
]>
<svg version="1.1" id="Capa_1" xmlns:x="&ns_extend;" xmlns:i="&ns_ai;" xmlns:graph="&ns_graphs;"
	 xmlns="http://www.w3.org/2000/svg" xmlns:xlink="http://www.w3.org/1999/xlink" x="0px" y="0px" viewBox="0 0 1603.9 385"
	 style="enable-background:new 0 0 1603.9 385;" xml:space="preserve">
<style type="text/css">
	.st0{fill:#1CABE2;}
</style>
<metadata>
	<sfw  xmlns="&ns_sfw;">
		<slices></slices>
		<sliceSourceBounds  bottomLeftOrigin="true" height="384.6" width="1600.1" x="449.9" y="673.2"></sliceSourceBounds>
	</sfw>
</metadata>
<path class="st0" d="M1379.8,0.2c-83.4,0-151.2,67.9-151.2,151.3c0,83.4,67.8,151.3,151.2,151.3c83.4,0,151.2-67.8,151.2-151.3
	C1531,68.1,1463.2,0.2,1379.8,0.2 M1497.8,67c-7.8,5.2-15.9,9.9-24.3,14.1c-5-10-11-19.5-18.1-28.3c6.2-3.7,12.1-8,17.6-12.6
	C1482.4,48.1,1490.7,57.1,1497.8,67 M1434.2,16.9c12.1,4.9,23.5,11.5,33.9,19.4c-5.3,4.3-10.8,8.3-16.7,11.8
	c-7.4-8.6-15.8-16.3-24.9-23C1429.3,22.5,1431.8,19.8,1434.2,16.9 M1445.9,51.2c-8.1,4.4-16.7,7.9-25.5,10.6
	c-3.7-8.5-7.9-16.7-12.6-24.7c4.9-2.2,9.5-4.9,13.8-8.1C1430.5,35.6,1438.6,43,1445.9,51.2 M1428,14.6c-2.1,2.4-4.3,4.7-6.7,6.8
	c-8-5.4-16.5-10.1-25.3-14C1407,8.5,1417.7,10.9,1428,14.6 M1416.2,25.4c-3.6,2.6-7.5,4.7-11.6,6.5c-4.5-7-9.4-13.8-14.6-20.3
	C1399.1,15.3,1407.9,19.9,1416.2,25.4 M1382.9,12.6c5.6,6.8,10.8,13.9,15.6,21.4c-5.1,1.6-10.3,2.5-15.6,2.7V12.6L1382.9,12.6z
	 M1382.9,43c6.5-0.3,12.9-1.5,19-3.5c4.6,7.7,8.8,15.8,12.4,24.1c-10.3,2.6-20.8,4.1-31.4,4.3L1382.9,43L1382.9,43z M1376.6,12.9
	v23.9c-5.2-0.3-10.4-1.2-15.4-2.7C1366,26.7,1371.1,19.6,1376.6,12.9 M1355.3,31.9c-4.1-1.7-8-3.9-11.6-6.5
	c8.2-5.5,16.9-10.1,26.1-13.8C1364.6,18.1,1359.7,24.8,1355.3,31.9 M1364,7.3c-8.9,3.9-17.5,8.6-25.5,14.1c-2.4-2.1-4.6-4.4-6.7-6.8
	C1342.2,10.9,1353,8.4,1364,7.3 M1467.6,266.9c-20.1-11-20.5-26.3-19.4-32c1.1-5.7,5-3.2,7.5-3.2c13.2,0,27.1-3.9,44.3-21.4
	c19.3-19.7,25.4-63.6-4.3-92.1c-32-30.8-66-25.4-88,2.3c-4.5,5.7-15.5,9.8-25,9.5c-14.1-0.5-5.2,10.6-5.2,12.9
	c0,2.3-2.1,3.9-3.4,3.6c-4.8-1.4-2.9,5.7-2.9,7.9c0,2.1-2,3.2-3,3.2c-5.9,0-4.3,5.3-4.1,6.8c0.2,1.4-0.3,3.9-2.3,5
	c-1.9,1.1-4.1,5.7-4.1,9.3c0,6.4,5.9,10.9,15.7,18.2c9.8,7.3,11.1,14.3,11.2,19.3c0.2,5,0.6,13.1,2.9,18.4
	c2.6,6.4,2.3,18.2-11.3,18.7c-16.6,0.7-46,13.9-48.5,14.8c-9.3,3.3-21.7,4.5-31.4,2.1c-5.2-3.7-10.2-7.7-14.8-12
	c-1.9-6.7,1.4-13.8,4.8-18.7c5.5,5.5,13.8,5.2,18.4,5.3c4.6,0.2,27.3-3.4,30.5-4.4c3.2-1.1,4.6-0.7,6.6,0
	c8.7,3.1,20.5,4.1,25.3-12.5c4.8-16.6-6.6-12-8-11.3c-1.4,0.7-3.4,0.6-2.7-0.9c2.1-4.2-1.1-3.8-2.9-3.9c-4.6-0.5-10.7,4.5-12.7,6.3
	c-2,1.8-4,1.6-4.7,1.2c-6.1-3.1-24.5,1.4-30.1-8.6c0.5-2.7-4.7-43-7.3-50c-0.9-2.2-0.6-4.7,0.7-6.6c4.7-7,17.5,0.5,24.5,0.3
	c8.3-0.2,9.7-3.7,12-6.5c2.2-2.7,3.8-1.2,5-2c1.5-1,0.1-2.9,0.6-4c0.6-1.1,1.2-0.5,2.6-1.8c1.4-1.3-0.2-3.9,0.5-5
	c2.1-3.1,7.7-0.6,4.3-8.7c-1.8-4.4,0.7-9.3,3.2-12.5c4-5.2,19.7-27.2-7.9-50c-26.3-21.8-52.8-20-70-1.4
	c-17.1,18.6-8.6,45.7-6.8,52.9c1.8,7.2-3.4,13.6-9.3,16.4c-4.7,2.2-15.4,9.3-23.5,16.4c1.3-58.3,36.6-109.5,90.9-131.3
	c2.3,2.9,4.9,5.6,7.6,8.2c-6,4.4-19.2,16.2-19.2,16.2s1.8,0.3,3.5,0.7c1.2,0.3,3.6,1,3.6,1s11.6-9.9,17.1-13.8
	c4.2,3.2,8.9,5.9,13.8,8.1c-2.7,4.5-9.3,16.9-9.3,16.9s1.5,0.9,2.9,1.8c1.3,0.9,2.2,1.7,2.2,1.7s7.2-13.6,10-18.1
	c6.1,2,12.4,3.2,18.8,3.5v24.9c-3.5-0.1-12.7-0.5-16.4-0.9l-2.3-0.2l1.3,1.9c1,1.4,1.7,2.9,2.4,4.2l0.3,0.5l0.6,0.1
	c2.7,0.2,11,0.5,14.1,0.6v45.3h6.3V109c9.2-0.4,16.9-1.1,26.1-1.9l0.4,0l8.1-7.2l-4.5,0.4c-8.7,1.1-17.4,1.9-26.2,2.3l-4,0.2V74.1
	c11.5-0.3,22.8-1.9,33.9-4.8c3,7.5,8.8,25.6,8.8,25.6l5.9-1.8c0,0-5.7-18-8.8-25.5c9.4-2.9,18.5-6.8,27.2-11.5
	c7,8.6,13,17.9,17.9,27.8c-4.5,2.1-12.6,5-12.6,5c6.5,0.7,11.5,2.3,11.5,2.3s2.3-1,3.8-1.6c0.6,1.3,1.7,3.9,1.7,3.9l8.1,3.6
	l-0.9-2.2c0,0-2.7-6.4-3.3-7.9c8.7-4.3,17.2-9.2,25.2-14.6c15.4,23.6,23.6,51.1,23.6,79.3C1524.9,198.5,1502.4,240.4,1467.6,266.9
	 M1214.9,40.4l-2.4,2.1c-8.9,7.8-29.1,28.6-26,51.3c0,0.1,0.3,1.6,0.3,1.6l1,4.5l2.8-2.6c12.4-11.3,21.7-30.6,25.5-52.8l1.1-6.3
	L1214.9,40.4L1214.9,40.4z M1173.8,79.7l-1,2.7c-1.4,3.8-4,11.8-5.3,22.4c-1.9,15-1.5,36.2,11.6,52.1c0,0,1.4,1.9,1.4,1.9l1.5,1.9
	l1.9-9.7c2.2-17-0.7-52.7-6.9-68.7l-2.1-5.4L1173.8,79.7L1173.8,79.7z M1158.8,141.1l-0.2,2.8c-1.1,15.3-0.3,53,30.2,73l3.6,2.3
	l-0.2-4.3c-0.5-14.3-17.2-57-29.8-72.3l-3.5-4.3L1158.8,141.1L1158.8,141.1z M1164,208.6l0.5,2.6c4.5,21.7,25,56.8,56.8,67l4.3,1.4
	l-1.6-4.3c-5.9-16.2-36.5-54-56.2-66.4l-4.4-2.8L1164,208.6L1164,208.6z M1227.8,73.1l-2.5,1.5c-23.6,14.4-34.7,31.9-33.9,53.5
	l0.2,4.9l3.4-2.9c12.8-10.6,28.8-37.6,33.5-53l1.7-5.6L1227.8,73.1L1227.8,73.1z M1213.9,120.3l-1.8,1.7c-6,5.7-25.6,26.6-23.9,52.3
	c0.3,4,1.2,8.2,2.7,12.7l1.4,4.1l2.5-3.5c9.4-13.2,21.8-47.9,21.1-64.1l-0.2-4.9L1213.9,120.3z M1214.9,165l-1.3,2
	c-9.9,14.6-14.9,29.7-14.6,43.6c0.3,10.3,3.5,20.1,9.7,29.2l2.1,3.1l1.7-3.3c4.3-8,7.7-34,7.1-54.6c-0.2-7.3-0.9-13.3-2.1-17.4
	l-1.3-4.5L1214.9,165L1214.9,165z M1226.3,212.8l-0.6,2.1c-3,9.5-4.4,18.8-4.1,27.6c0.6,20,9.4,35.6,26.3,46.5l2.9,1.8l0.6-3.9
	c0-0.1,0.2-3.1,0.2-3.1c-0.5-16.3-12.6-57.2-22-69.7l-2.6-3.5L1226.3,212.8L1226.3,212.8z M1193,276.2l1.2,2
	c12.7,21.3,34.3,48.9,74.7,41.8l3.4-0.6l-1.9-2.8c-7.6-11.2-56.6-38.9-73.9-41.7l-4.7-0.8L1193,276.2z M1252.8,330.4l-6.3,1.7
	l6.1,2.5c25.7,10.5,57.9,13.6,76.5,7.4c7-2.4,11.3-6.2,16.5-11.3c32.9,3.4,63.6,30.7,81.6,53l1,1.1l1.4-0.4c2-0.7,5.1-3.1,6.4-4.5
	l1.3-1.3l-1.1-1.5c-18.7-24.5-48-39.7-49.3-40.3C1360.3,323.9,1313.8,313.9,1252.8,330.4"/>
<path class="st0" d="M1254.1,262.1l0.4,2.2c3.9,24.2,13.7,55.9,54.5,52.4l2.6-0.2l-0.7-2.5c-2.8-11-40.2-43-53.3-52l-3.9-2
	L1254.1,262.1z M1543,38.3l1.1,6.3c3.8,22.2,13.1,41.5,25.5,52.8l2.8,2.6l1-4.5c0,0,0.3-1.5,0.3-1.6c3.1-22.7-17.1-43.5-26-51.3
	l-2.4-2.1L1543,38.3z M1585.5,77l-2.2,5.4c-6.3,15.9-9.1,51.7-7,68.7l2,9.7l1.5-1.9l1.4-1.9c13-15.9,13.5-37.1,11.5-52.1
	c-1.3-10.6-3.9-18.6-5.3-22.4l-1-2.7L1585.5,77L1585.5,77z M1601.3,138.3l-3.5,4.3c-12.5,15.3-29.2,58-29.7,72.3l-0.2,4.3l3.6-2.3
	c30.5-20,31.3-57.7,30.2-73l-0.2-2.8L1601.3,138.3L1601.3,138.3z M1596.8,206l-4.4,2.8c-19.6,12.5-50.3,50.2-56.2,66.4l-1.6,4.3
	l4.3-1.4c31.7-10.2,52.3-45.3,56.7-67l0.5-2.6L1596.8,206L1596.8,206z M1531.2,70.8l1.6,5.6c4.4,15.5,19.8,42.8,32.4,53.6l3.4,2.9
	l0.3-4.9c1.3-21.5-9.4-39.2-32.8-54.1l-2.5-1.6L1531.2,70.8z M1544.6,118.6l-0.2,4.9c-0.6,16.2,11.7,50.9,21.1,64.1l2.5,3.5l1.4-4.1
	c1.5-4.4,2.4-8.7,2.7-12.7c1.7-25.8-17.9-46.6-23.9-52.3l-1.8-1.7L1544.6,118.6L1544.6,118.6z M1544.1,163l-1.3,4.5
	c-1.2,4.1-1.9,10.1-2.1,17.4c-0.5,20.6,2.9,46.6,7.1,54.6l1.7,3.3l2.1-3.1c6.2-9.1,9.4-18.9,9.7-29.2c0.3-13.9-4.7-28.9-14.6-43.6
	l-1.3-2L1544.1,163z M1533.3,210.7l-2.6,3.5c-9.5,12.5-21.6,53.4-22,69.7c0,0,0.2,3,0.3,3.1l0.6,3.9c0,0,2.9-1.8,2.9-1.8
	c16.9-10.9,25.7-26.5,26.3-46.5c0.2-8.8-1.1-18.1-4.1-27.6l-0.7-2.1L1533.3,210.7L1533.3,210.7z M1568.5,274.2l-4.7,0.8
	c-17.3,2.8-66.3,30.5-73.9,41.7l-1.9,2.8l3.4,0.6c40.4,7.1,62-20.5,74.7-41.8l1.2-2L1568.5,274.2L1568.5,274.2z M1373.6,336.8
	c-1.3,0.6-30.6,15.8-49.3,40.3l-1.2,1.5l1.3,1.3c1.3,1.4,4.4,3.8,6.4,4.5l1.4,0.4l1-1.1c17.9-22.3,48.7-49.6,81.5-53
	c5.2,5.1,9.5,8.9,16.5,11.3c18.7,6.3,50.8,3.2,76.5-7.4l6.1-2.5l-6.3-1.7C1446.5,313.9,1399.9,323.9,1373.6,336.8 M1506.5,259.9
	l-3.9,2c-13.1,9-50.5,41-53.3,52l-0.6,2.5l2.6,0.2c40.9,3.5,50.7-28.2,54.5-52.4l0.4-2.2L1506.5,259.9z M474.2,15.1h51.1v46.6h-51.1
	V15.1z M478.2,114.5h43v226.9h-43V114.5L478.2,114.5z M154.2,114.7h42.9v226.9h-42v-33.4h-0.9c-17.2,28.5-46.1,40.2-77.7,40.2
	c-47.4,0-74.6-36.1-74.6-81.8V114.7h43V249c0,39.3,9,68.2,50.1,68.2c17.6,0,41.6-9,50.6-32.5c8.1-21.2,8.6-47.9,8.6-53.4
	L154.2,114.7L154.2,114.7z M282.8,148.2h0.9c14.5-28.5,46.1-40.2,68.7-40.2c15.8,0,85.9,4.1,85.9,76.8v156.8h-42.9V198.8
	c0-37.5-15.8-57.8-52-57.8c0,0-23.5-1.4-41.6,16.7c-6.3,6.3-18.1,16.3-18.1,60.6v123.4h-42.9V114.8h42L282.8,148.2L282.8,148.2z
	 M700.9,187.5c-2.3-28.3-15.7-48-46.2-48c-40.8,0-56.5,35.4-56.5,88.5c0,53,15.7,88.5,56.5,88.5c28.3,0,45.8-18.4,48-50.8h42.7
	c-3.6,50.8-41.3,81.7-91.2,81.7c-72.3,0-101-51.2-101-117.7c0-66.1,33.2-121.3,104.6-121.3c47.6,0,83.5,30.1,85.7,79L700.9,187.5
	L700.9,187.5z M809.5,236c-3.2,39.5,13,80.4,56.5,80.4c33.2,0,49.8-13,54.7-45.9h45c-6.8,51.3-46.3,76.8-100.1,76.8
	c-72.3,0-101.1-51.2-101.1-117.7c0-66.1,33.3-121.3,104.7-121.3c67.3,1.4,99.2,44,99.2,106.5V236L809.5,236L809.5,236z M923.5,206.4
	c0.9-37.7-16.2-66.9-57.5-66.9c-35.5,0-56.5,30-56.5,66.9H923.5L923.5,206.4z M1016.7,340.6V144.9h-38.8v-29.7h38.8V66.7
	c1.4-49.4,38.6-62.4,70.5-62.4c10.3,0,20.2,2.7,30.6,4.5v35.4c-7.3-0.4-14.4-1.3-21.6-1.3c-24.2,0-38.2,6.3-36.8,31v41.3h52.1v29.7
	h-52.1v195.8L1016.7,340.6L1016.7,340.6z"/>
</svg>
